<mxfile host="app.diagrams.net" agent="Mozilla/5.0 (X11; Linux x86_64) AppleWebKit/537.36 (KHTML, like Gecko) Chrome/131.0.0.0 Safari/537.36" version="24.8.9">
  <diagram id="C5RBs43oDa-KdzZeNtuy" name="Page-1">
    <mxGraphModel dx="1434" dy="689" grid="1" gridSize="10" guides="1" tooltips="1" connect="1" arrows="1" fold="1" page="1" pageScale="1" pageWidth="827" pageHeight="1169" math="0" shadow="0">
      <root>
        <mxCell id="WIyWlLk6GJQsqaUBKTNV-0" />
        <mxCell id="WIyWlLk6GJQsqaUBKTNV-1" parent="WIyWlLk6GJQsqaUBKTNV-0" />
        <mxCell id="wETnqqtnv8DSlwry-ZgT-3" style="edgeStyle=orthogonalEdgeStyle;rounded=0;orthogonalLoop=1;jettySize=auto;html=1;exitX=1;exitY=0.5;exitDx=0;exitDy=0;entryX=0;entryY=0.5;entryDx=0;entryDy=0;" edge="1" parent="WIyWlLk6GJQsqaUBKTNV-1" source="wETnqqtnv8DSlwry-ZgT-0" target="wETnqqtnv8DSlwry-ZgT-2">
          <mxGeometry relative="1" as="geometry" />
        </mxCell>
        <mxCell id="wETnqqtnv8DSlwry-ZgT-0" value="Evento" style="rounded=1;whiteSpace=wrap;html=1;" vertex="1" parent="WIyWlLk6GJQsqaUBKTNV-1">
          <mxGeometry x="150" y="30" width="120" height="60" as="geometry" />
        </mxCell>
        <mxCell id="wETnqqtnv8DSlwry-ZgT-15" style="edgeStyle=orthogonalEdgeStyle;rounded=0;orthogonalLoop=1;jettySize=auto;html=1;entryX=0;entryY=0.5;entryDx=0;entryDy=0;" edge="1" parent="WIyWlLk6GJQsqaUBKTNV-1" source="wETnqqtnv8DSlwry-ZgT-1" target="wETnqqtnv8DSlwry-ZgT-10">
          <mxGeometry relative="1" as="geometry" />
        </mxCell>
        <mxCell id="wETnqqtnv8DSlwry-ZgT-17" style="edgeStyle=orthogonalEdgeStyle;rounded=0;orthogonalLoop=1;jettySize=auto;html=1;entryX=1;entryY=0.5;entryDx=0;entryDy=0;" edge="1" parent="WIyWlLk6GJQsqaUBKTNV-1" source="wETnqqtnv8DSlwry-ZgT-1" target="wETnqqtnv8DSlwry-ZgT-9">
          <mxGeometry relative="1" as="geometry">
            <Array as="points">
              <mxPoint x="540" y="80" />
              <mxPoint x="540" y="160" />
            </Array>
          </mxGeometry>
        </mxCell>
        <mxCell id="wETnqqtnv8DSlwry-ZgT-1" value="Sessão" style="rounded=1;whiteSpace=wrap;html=1;" vertex="1" parent="WIyWlLk6GJQsqaUBKTNV-1">
          <mxGeometry x="550" y="30" width="120" height="60" as="geometry" />
        </mxCell>
        <mxCell id="wETnqqtnv8DSlwry-ZgT-4" style="edgeStyle=orthogonalEdgeStyle;rounded=0;orthogonalLoop=1;jettySize=auto;html=1;exitX=1;exitY=0.5;exitDx=0;exitDy=0;entryX=0;entryY=0.5;entryDx=0;entryDy=0;" edge="1" parent="WIyWlLk6GJQsqaUBKTNV-1" source="wETnqqtnv8DSlwry-ZgT-2" target="wETnqqtnv8DSlwry-ZgT-1">
          <mxGeometry relative="1" as="geometry" />
        </mxCell>
        <mxCell id="wETnqqtnv8DSlwry-ZgT-2" value="" style="rhombus;whiteSpace=wrap;html=1;" vertex="1" parent="WIyWlLk6GJQsqaUBKTNV-1">
          <mxGeometry x="380.5" y="30" width="66" height="60" as="geometry" />
        </mxCell>
        <mxCell id="wETnqqtnv8DSlwry-ZgT-5" value="Palestrante" style="rounded=1;whiteSpace=wrap;html=1;" vertex="1" parent="WIyWlLk6GJQsqaUBKTNV-1">
          <mxGeometry x="840" y="120" width="120" height="60" as="geometry" />
        </mxCell>
        <mxCell id="wETnqqtnv8DSlwry-ZgT-39" style="edgeStyle=orthogonalEdgeStyle;rounded=0;orthogonalLoop=1;jettySize=auto;html=1;entryX=0;entryY=0.5;entryDx=0;entryDy=0;" edge="1" parent="WIyWlLk6GJQsqaUBKTNV-1" source="wETnqqtnv8DSlwry-ZgT-7" target="wETnqqtnv8DSlwry-ZgT-35">
          <mxGeometry relative="1" as="geometry" />
        </mxCell>
        <mxCell id="wETnqqtnv8DSlwry-ZgT-7" value="Ingresso" style="rounded=1;whiteSpace=wrap;html=1;" vertex="1" parent="WIyWlLk6GJQsqaUBKTNV-1">
          <mxGeometry x="294" y="260" width="120" height="60" as="geometry" />
        </mxCell>
        <mxCell id="wETnqqtnv8DSlwry-ZgT-48" style="edgeStyle=orthogonalEdgeStyle;rounded=0;orthogonalLoop=1;jettySize=auto;html=1;" edge="1" parent="WIyWlLk6GJQsqaUBKTNV-1" source="wETnqqtnv8DSlwry-ZgT-9">
          <mxGeometry relative="1" as="geometry">
            <mxPoint x="350" y="260" as="targetPoint" />
          </mxGeometry>
        </mxCell>
        <mxCell id="wETnqqtnv8DSlwry-ZgT-9" value="" style="rhombus;whiteSpace=wrap;html=1;" vertex="1" parent="WIyWlLk6GJQsqaUBKTNV-1">
          <mxGeometry x="390" y="130" width="66" height="60" as="geometry" />
        </mxCell>
        <mxCell id="wETnqqtnv8DSlwry-ZgT-16" style="edgeStyle=orthogonalEdgeStyle;rounded=0;orthogonalLoop=1;jettySize=auto;html=1;" edge="1" parent="WIyWlLk6GJQsqaUBKTNV-1" source="wETnqqtnv8DSlwry-ZgT-10" target="wETnqqtnv8DSlwry-ZgT-5">
          <mxGeometry relative="1" as="geometry" />
        </mxCell>
        <mxCell id="wETnqqtnv8DSlwry-ZgT-10" value="" style="rhombus;whiteSpace=wrap;html=1;" vertex="1" parent="WIyWlLk6GJQsqaUBKTNV-1">
          <mxGeometry x="710" y="120" width="66" height="60" as="geometry" />
        </mxCell>
        <mxCell id="wETnqqtnv8DSlwry-ZgT-21" value="(1,n)" style="text;strokeColor=none;align=center;fillColor=none;html=1;verticalAlign=middle;whiteSpace=wrap;rounded=0;" vertex="1" parent="WIyWlLk6GJQsqaUBKTNV-1">
          <mxGeometry x="780" y="120" width="60" height="30" as="geometry" />
        </mxCell>
        <mxCell id="wETnqqtnv8DSlwry-ZgT-22" value="(1,n)" style="text;strokeColor=none;align=center;fillColor=none;html=1;verticalAlign=middle;whiteSpace=wrap;rounded=0;" vertex="1" parent="WIyWlLk6GJQsqaUBKTNV-1">
          <mxGeometry x="480" y="80" width="60" height="30" as="geometry" />
        </mxCell>
        <mxCell id="wETnqqtnv8DSlwry-ZgT-23" value="(0,1)" style="text;strokeColor=none;align=center;fillColor=none;html=1;verticalAlign=middle;whiteSpace=wrap;rounded=0;" vertex="1" parent="WIyWlLk6GJQsqaUBKTNV-1">
          <mxGeometry x="340" y="230" width="60" height="30" as="geometry" />
        </mxCell>
        <mxCell id="wETnqqtnv8DSlwry-ZgT-24" value="(1,n)" style="text;strokeColor=none;align=center;fillColor=none;html=1;verticalAlign=middle;whiteSpace=wrap;rounded=0;" vertex="1" parent="WIyWlLk6GJQsqaUBKTNV-1">
          <mxGeometry x="270" y="30" width="60" height="30" as="geometry" />
        </mxCell>
        <mxCell id="wETnqqtnv8DSlwry-ZgT-25" value="(1,1)" style="text;strokeColor=none;align=center;fillColor=none;html=1;verticalAlign=middle;whiteSpace=wrap;rounded=0;" vertex="1" parent="WIyWlLk6GJQsqaUBKTNV-1">
          <mxGeometry x="660" y="30" width="60" height="30" as="geometry" />
        </mxCell>
        <mxCell id="wETnqqtnv8DSlwry-ZgT-26" value="(1,n)" style="text;strokeColor=none;align=center;fillColor=none;html=1;verticalAlign=middle;whiteSpace=wrap;rounded=0;" vertex="1" parent="WIyWlLk6GJQsqaUBKTNV-1">
          <mxGeometry x="490" y="30" width="60" height="30" as="geometry" />
        </mxCell>
        <mxCell id="wETnqqtnv8DSlwry-ZgT-33" value="Participante" style="rounded=1;whiteSpace=wrap;html=1;" vertex="1" parent="WIyWlLk6GJQsqaUBKTNV-1">
          <mxGeometry x="630" y="260" width="120" height="60" as="geometry" />
        </mxCell>
        <mxCell id="wETnqqtnv8DSlwry-ZgT-34" style="edgeStyle=orthogonalEdgeStyle;rounded=0;orthogonalLoop=1;jettySize=auto;html=1;exitX=1;exitY=0.5;exitDx=0;exitDy=0;" edge="1" parent="WIyWlLk6GJQsqaUBKTNV-1" source="wETnqqtnv8DSlwry-ZgT-35" target="wETnqqtnv8DSlwry-ZgT-33">
          <mxGeometry relative="1" as="geometry" />
        </mxCell>
        <mxCell id="wETnqqtnv8DSlwry-ZgT-35" value="" style="rhombus;whiteSpace=wrap;html=1;" vertex="1" parent="WIyWlLk6GJQsqaUBKTNV-1">
          <mxGeometry x="503" y="260" width="66" height="60" as="geometry" />
        </mxCell>
        <mxCell id="wETnqqtnv8DSlwry-ZgT-40" value="(n,1)" style="text;strokeColor=none;align=center;fillColor=none;html=1;verticalAlign=middle;whiteSpace=wrap;rounded=0;" vertex="1" parent="WIyWlLk6GJQsqaUBKTNV-1">
          <mxGeometry x="580" y="260" width="60" height="30" as="geometry" />
        </mxCell>
        <mxCell id="wETnqqtnv8DSlwry-ZgT-41" value="(1,n)" style="text;strokeColor=none;align=center;fillColor=none;html=1;verticalAlign=middle;whiteSpace=wrap;rounded=0;" vertex="1" parent="WIyWlLk6GJQsqaUBKTNV-1">
          <mxGeometry x="400" y="260" width="60" height="30" as="geometry" />
        </mxCell>
        <mxCell id="wETnqqtnv8DSlwry-ZgT-44" value="Nome" style="text;html=1;align=center;verticalAlign=middle;resizable=0;points=[];autosize=1;strokeColor=none;fillColor=none;fontStyle=0" vertex="1" parent="WIyWlLk6GJQsqaUBKTNV-1">
          <mxGeometry x="180" y="110" width="60" height="30" as="geometry" />
        </mxCell>
        <mxCell id="wETnqqtnv8DSlwry-ZgT-45" value="ID_Evento" style="text;html=1;align=center;verticalAlign=middle;resizable=0;points=[];autosize=1;strokeColor=none;fillColor=none;" vertex="1" parent="WIyWlLk6GJQsqaUBKTNV-1">
          <mxGeometry x="170" y="90" width="80" height="30" as="geometry" />
        </mxCell>
        <mxCell id="wETnqqtnv8DSlwry-ZgT-46" value="Data" style="text;html=1;align=center;verticalAlign=middle;resizable=0;points=[];autosize=1;strokeColor=none;fillColor=none;fontStyle=0" vertex="1" parent="WIyWlLk6GJQsqaUBKTNV-1">
          <mxGeometry x="185" y="135" width="50" height="30" as="geometry" />
        </mxCell>
        <mxCell id="wETnqqtnv8DSlwry-ZgT-47" value="Local" style="text;html=1;align=center;verticalAlign=middle;resizable=0;points=[];autosize=1;strokeColor=none;fillColor=none;fontStyle=0" vertex="1" parent="WIyWlLk6GJQsqaUBKTNV-1">
          <mxGeometry x="185" y="160" width="50" height="30" as="geometry" />
        </mxCell>
        <mxCell id="wETnqqtnv8DSlwry-ZgT-59" value="ID_Sessão" style="text;html=1;align=center;verticalAlign=middle;resizable=0;points=[];autosize=1;strokeColor=none;fillColor=none;fontStyle=0" vertex="1" parent="WIyWlLk6GJQsqaUBKTNV-1">
          <mxGeometry x="570" y="90" width="80" height="30" as="geometry" />
        </mxCell>
        <mxCell id="wETnqqtnv8DSlwry-ZgT-60" value="ID_Evento" style="text;html=1;align=center;verticalAlign=middle;resizable=0;points=[];autosize=1;strokeColor=none;fillColor=none;" vertex="1" parent="WIyWlLk6GJQsqaUBKTNV-1">
          <mxGeometry x="570" y="115" width="80" height="30" as="geometry" />
        </mxCell>
        <mxCell id="wETnqqtnv8DSlwry-ZgT-61" value="Nome" style="text;html=1;align=center;verticalAlign=middle;resizable=0;points=[];autosize=1;strokeColor=none;fillColor=none;" vertex="1" parent="WIyWlLk6GJQsqaUBKTNV-1">
          <mxGeometry x="580" y="140" width="60" height="30" as="geometry" />
        </mxCell>
        <mxCell id="wETnqqtnv8DSlwry-ZgT-62" value="ID_Participante" style="text;html=1;align=center;verticalAlign=middle;resizable=0;points=[];autosize=1;strokeColor=none;fillColor=none;fontStyle=0" vertex="1" parent="WIyWlLk6GJQsqaUBKTNV-1">
          <mxGeometry x="635" y="320" width="110" height="30" as="geometry" />
        </mxCell>
        <mxCell id="wETnqqtnv8DSlwry-ZgT-63" value="Nome" style="text;html=1;align=center;verticalAlign=middle;resizable=0;points=[];autosize=1;strokeColor=none;fillColor=none;" vertex="1" parent="WIyWlLk6GJQsqaUBKTNV-1">
          <mxGeometry x="660" y="345" width="60" height="30" as="geometry" />
        </mxCell>
        <mxCell id="wETnqqtnv8DSlwry-ZgT-64" value="Email" style="text;html=1;align=center;verticalAlign=middle;resizable=0;points=[];autosize=1;strokeColor=none;fillColor=none;" vertex="1" parent="WIyWlLk6GJQsqaUBKTNV-1">
          <mxGeometry x="665" y="370" width="50" height="30" as="geometry" />
        </mxCell>
        <mxCell id="wETnqqtnv8DSlwry-ZgT-65" value="ID_Ingresso" style="text;html=1;align=center;verticalAlign=middle;resizable=0;points=[];autosize=1;strokeColor=none;fillColor=none;fontStyle=0" vertex="1" parent="WIyWlLk6GJQsqaUBKTNV-1">
          <mxGeometry x="309" y="320" width="90" height="30" as="geometry" />
        </mxCell>
        <mxCell id="wETnqqtnv8DSlwry-ZgT-66" value="Tipo" style="text;html=1;align=center;verticalAlign=middle;resizable=0;points=[];autosize=1;strokeColor=none;fillColor=none;" vertex="1" parent="WIyWlLk6GJQsqaUBKTNV-1">
          <mxGeometry x="329" y="345" width="50" height="30" as="geometry" />
        </mxCell>
        <mxCell id="wETnqqtnv8DSlwry-ZgT-67" value="Preço" style="text;html=1;align=center;verticalAlign=middle;resizable=0;points=[];autosize=1;strokeColor=none;fillColor=none;" vertex="1" parent="WIyWlLk6GJQsqaUBKTNV-1">
          <mxGeometry x="329" y="370" width="50" height="30" as="geometry" />
        </mxCell>
        <mxCell id="wETnqqtnv8DSlwry-ZgT-68" value="ID_Palestrante" style="text;html=1;align=center;verticalAlign=middle;resizable=0;points=[];autosize=1;strokeColor=none;fillColor=none;fontStyle=0" vertex="1" parent="WIyWlLk6GJQsqaUBKTNV-1">
          <mxGeometry x="850" y="180" width="100" height="30" as="geometry" />
        </mxCell>
        <mxCell id="wETnqqtnv8DSlwry-ZgT-69" value="Nome" style="text;html=1;align=center;verticalAlign=middle;resizable=0;points=[];autosize=1;strokeColor=none;fillColor=none;" vertex="1" parent="WIyWlLk6GJQsqaUBKTNV-1">
          <mxGeometry x="870" y="205" width="60" height="30" as="geometry" />
        </mxCell>
        <mxCell id="wETnqqtnv8DSlwry-ZgT-70" value="Contato" style="text;html=1;align=center;verticalAlign=middle;resizable=0;points=[];autosize=1;strokeColor=none;fillColor=none;" vertex="1" parent="WIyWlLk6GJQsqaUBKTNV-1">
          <mxGeometry x="865" y="230" width="70" height="30" as="geometry" />
        </mxCell>
        <mxCell id="wETnqqtnv8DSlwry-ZgT-72" value="Local/Hora" style="text;html=1;align=center;verticalAlign=middle;resizable=0;points=[];autosize=1;strokeColor=none;fillColor=none;fontStyle=0" vertex="1" parent="WIyWlLk6GJQsqaUBKTNV-1">
          <mxGeometry x="570" y="165" width="80" height="30" as="geometry" />
        </mxCell>
        <mxCell id="wETnqqtnv8DSlwry-ZgT-73" value="Telefone" style="text;html=1;align=center;verticalAlign=middle;resizable=0;points=[];autosize=1;strokeColor=none;fillColor=none;" vertex="1" parent="WIyWlLk6GJQsqaUBKTNV-1">
          <mxGeometry x="655" y="390" width="70" height="30" as="geometry" />
        </mxCell>
        <mxCell id="wETnqqtnv8DSlwry-ZgT-74" value="Feedback" style="text;html=1;align=center;verticalAlign=middle;resizable=0;points=[];autosize=1;strokeColor=none;fillColor=none;" vertex="1" parent="WIyWlLk6GJQsqaUBKTNV-1">
          <mxGeometry x="650" y="410" width="80" height="30" as="geometry" />
        </mxCell>
      </root>
    </mxGraphModel>
  </diagram>
</mxfile>
